<?xml version="1.0" standalone="no"?>
<!DOCTYPE svg PUBLIC "-//W3C//DTD SVG 20010904//EN"
 "http://www.w3.org/TR/2001/REC-SVG-20010904/DTD/svg10.dtd">
<svg version="1.0" xmlns="http://www.w3.org/2000/svg"
 width="225.000000pt" height="225.000000pt" viewBox="0 0 225.000000 225.000000"
 preserveAspectRatio="xMidYMid meet">

<g transform="translate(0.000000,225.000000) scale(0.100000,-0.100000)"
fill="#000000" stroke="none">
<path d="M1094 2155 c-19 -29 -113 -99 -241 -180 -97 -60 -155 -115 -194 -183
-19 -32 -31 -41 -59 -46 -61 -10 -131 -50 -265 -152 -181 -136 -266 -194 -286
-194 -9 0 -22 -6 -28 -14 -10 -11 -6 -26 18 -68 17 -29 46 -111 65 -183 54
-203 77 -257 129 -313 29 -30 31 -38 33 -110 1 -67 10 -104 72 -287 40 -116
74 -232 78 -260 11 -99 10 -98 52 -89 20 5 154 9 297 9 257 0 261 0 311 25
l51 25 49 -25 c48 -25 51 -25 309 -25 143 0 275 -4 294 -9 41 -10 51 1 51 64
0 42 16 94 99 320 27 73 31 97 29 166 -2 76 0 83 26 114 15 18 38 54 50 79 23
45 98 264 132 386 9 33 30 84 46 113 24 43 28 56 18 67 -7 8 -20 15 -29 15
-22 0 -138 80 -249 171 -94 78 -171 119 -236 127 -37 4 -45 10 -76 59 -45 71
-100 117 -287 242 -85 57 -167 119 -185 141 -37 46 -51 49 -74 15z m250 -182
c172 -114 260 -192 292 -260 18 -41 21 -42 64 -43 65 0 129 -35 252 -133 131
-105 189 -145 228 -158 l30 -11 -24 -41 c-13 -23 -34 -76 -46 -117 -40 -141
-103 -325 -127 -373 -13 -26 -39 -64 -57 -85 -32 -35 -33 -40 -26 -87 11 -72
-4 -148 -57 -282 -53 -135 -73 -204 -73 -251 l0 -32 -42 7 c-24 5 -68 7 -98 7
-30 -1 -131 -3 -225 -5 -185 -4 -234 4 -282 45 l-28 24 -28 -24 c-56 -47 -144
-55 -457 -44 -69 3 -140 1 -157 -3 -31 -8 -33 -7 -33 18 0 43 -36 171 -88 316
-63 173 -75 227 -70 297 5 55 4 58 -32 95 -21 20 -48 58 -60 83 -19 42 -90
282 -90 308 0 6 -15 41 -33 78 l-33 67 36 14 c19 8 118 76 219 151 201 150
236 171 309 187 41 8 51 15 65 45 30 62 100 126 243 219 77 51 156 108 175
128 l34 36 29 -35 c16 -20 101 -83 190 -141z"/>
<path d="M1089 2064 c-18 -20 -98 -79 -176 -131 -135 -89 -176 -127 -218 -200
-13 -22 -28 -33 -54 -38 -58 -11 -121 -49 -272 -161 -170 -127 -227 -164 -251
-164 -24 0 -23 -13 7 -63 13 -23 40 -101 59 -173 19 -71 42 -150 52 -174 20
-51 70 -129 88 -136 7 -3 11 -32 12 -82 0 -68 8 -99 67 -271 37 -106 70 -221
75 -255 7 -54 10 -61 27 -57 11 2 133 4 270 5 246 1 251 1 301 26 l51 25 49
-25 c48 -25 52 -25 299 -26 137 -1 259 -3 270 -5 17 -4 20 3 27 57 3 34 25
110 48 170 65 169 71 193 69 276 -2 70 0 79 25 109 15 17 37 53 50 78 22 45
88 238 120 351 8 31 27 77 41 103 30 57 31 67 7 67 -26 0 -118 61 -232 153
-107 87 -162 117 -226 125 -38 4 -46 9 -68 46 -39 66 -107 124 -274 236 -97
65 -164 117 -177 137 -11 18 -22 32 -26 33 -3 0 -21 -16 -40 -36z m234 -146
c176 -118 229 -164 267 -231 26 -45 32 -50 69 -52 64 -5 137 -46 262 -147 64
-51 137 -104 162 -116 l46 -23 -30 -62 c-16 -34 -29 -68 -29 -75 0 -18 -99
-321 -115 -352 -7 -14 -28 -45 -46 -70 -32 -43 -33 -50 -34 -135 -1 -84 -5
-99 -54 -225 -29 -74 -58 -163 -64 -198 -9 -57 -12 -62 -31 -55 -12 4 -79 6
-151 3 -301 -10 -381 -2 -426 46 l-22 24 -24 -24 c-48 -48 -128 -56 -428 -46
-71 3 -140 1 -151 -3 -20 -7 -22 -3 -28 40 -4 26 -39 142 -77 257 -64 191 -70
215 -68 277 4 66 3 69 -30 101 -46 44 -73 108 -117 268 -20 74 -47 156 -60
182 l-23 46 42 22 c23 12 116 78 207 146 174 129 234 163 288 164 17 0 32 4
32 9 0 5 18 36 41 70 36 54 59 73 184 155 79 52 158 110 176 128 l34 34 23
-28 c13 -15 92 -73 175 -130z"/>
<path d="M995 1676 c-22 -7 -46 -11 -53 -8 -6 2 -12 0 -12 -5 0 -4 -12 -9 -26
-10 -15 0 -30 -6 -34 -13 -4 -6 -10 -11 -14 -10 -13 3 -96 -42 -96 -51 0 -6
-4 -8 -9 -4 -10 5 -151 -125 -151 -139 0 -4 -9 -17 -20 -29 -18 -18 -70 -116
-76 -139 -1 -5 -3 -10 -4 -13 -1 -3 -4 -9 -5 -15 -1 -5 -3 -11 -4 -12 -3 -3
-5 -14 -19 -90 -9 -45 -8 -160 2 -220 9 -55 59 -183 77 -198 4 -3 9 -15 13
-27 4 -13 12 -23 17 -23 5 0 9 -5 9 -11 0 -29 230 -221 230 -192 0 4 4 3 8 -3
8 -13 119 -51 177 -60 52 -9 157 -9 180 0 17 6 17 7 0 26 -10 11 -13 20 -7 20
15 0 33 -35 24 -45 -4 -4 4 -4 16 0 13 4 34 8 45 10 41 5 77 17 77 26 0 5 7 6
15 3 8 -4 15 -2 15 4 0 6 14 13 30 17 17 4 30 10 30 15 0 5 9 12 21 15 25 8
44 23 114 90 50 48 133 165 117 165 -4 0 -2 4 4 8 14 9 65 162 58 173 -3 5
-17 7 -32 3 -23 -4 -24 -4 -9 6 10 7 24 9 32 7 8 -4 15 3 17 17 8 39 -1 187
-12 216 -1 3 -2 8 -1 12 3 23 -65 179 -81 186 -5 2 -8 9 -8 16 0 6 -9 18 -20
26 -11 8 -20 18 -20 23 0 4 -24 31 -54 60 -65 63 -82 77 -95 77 -5 0 -11 3
-13 8 -8 17 -144 73 -213 87 -61 12 -201 13 -240 1z m30 -26 c10 -11 13 -20 7
-20 -6 0 -16 9 -22 20 -6 11 -9 20 -7 20 2 0 12 -9 22 -20z m30 0 c10 -11 16
-20 13 -20 -3 0 -13 9 -23 20 -10 11 -16 20 -13 20 3 0 13 -9 23 -20z m25 8
c0 -10 3 -9 9 1 7 11 12 9 22 -10 11 -21 11 -23 -3 -11 -11 8 -17 9 -20 2 -1
-5 -9 -1 -16 10 -7 12 -8 20 -2 20 5 0 10 -6 10 -12z m82 -2 c14 -21 7 -31 -7
-12 -8 11 -15 14 -15 7 0 -7 -4 -9 -10 -6 -5 3 -10 10 -10 14 0 12 34 9 42 -3z
m28 -6 c6 -11 8 -20 6 -20 -3 0 -10 9 -16 20 -6 11 -8 20 -6 20 3 0 10 -9 16
-20z m40 -23 c0 -16 -18 3 -23 25 -6 22 -5 22 8 4 8 -11 15 -24 15 -29z m-226
7 c7 -19 2 -18 -19 6 -16 17 -16 20 -3 15 9 -4 19 -13 22 -21z m246 6 c6 -11
7 -20 2 -20 -6 0 -12 9 -15 20 -3 11 -3 20 -1 20 2 0 8 -9 14 -20z m-280 -5
c7 -8 8 -15 2 -15 -5 0 -15 7 -22 15 -7 8 -8 15 -2 15 5 0 15 -7 22 -15z m310
-5 c0 -11 -2 -20 -4 -20 -2 0 -6 9 -9 20 -3 11 -1 20 4 20 5 0 9 -9 9 -20z
m29 -13 c0 -21 -1 -21 -9 -2 -12 28 -12 37 0 30 6 -3 10 -16 9 -28z m-368 6
c13 -16 12 -17 -3 -4 -17 13 -22 21 -14 21 2 0 10 -8 17 -17z m399 -23 c0 -13
-1 -13 -10 0 -5 8 -10 22 -10 30 0 13 1 13 10 0 5 -8 10 -22 10 -30z m-420 8
c0 -6 -6 -5 -15 2 -8 7 -15 14 -15 16 0 2 7 1 15 -2 8 -4 15 -11 15 -16z m449
-21 c1 -5 -3 -5 -9 -2 -5 3 -10 16 -9 28 0 21 1 21 9 2 5 -11 9 -24 9 -28z
m-479 18 c7 -8 8 -15 2 -15 -5 0 -15 7 -22 15 -7 8 -8 15 -2 15 5 0 15 -7 22
-15z m406 -19 c39 -14 74 -26 77 -26 3 0 8 10 10 23 3 16 4 14 2 -5 -1 -21 6
-31 31 -44 42 -23 184 -168 184 -188 0 -9 4 -16 9 -16 9 0 56 -120 68 -173 9
-43 9 -183 0 -230 -4 -20 -18 -65 -32 -99 -30 -75 -30 -76 -2 -81 12 -2 8 -3
-10 -1 -25 2 -34 -2 -39 -19 -9 -27 -160 -177 -178 -177 -8 0 -21 -6 -28 -13
-15 -16 -83 -42 -153 -60 -46 -12 -198 -15 -235 -6 -11 3 -14 -3 -12 -26 2
-25 1 -27 -9 -12 -6 10 -9 23 -6 30 3 10 -120 67 -145 67 -4 0 -9 -10 -11 -22
-2 -13 -3 -8 -1 10 1 18 -1 30 -7 27 -5 -4 -9 -2 -9 2 0 5 -12 16 -27 25 -46
27 -97 80 -141 143 -97 143 -122 295 -80 485 2 11 -5 14 -25 13 -17 -1 -25 2
-21 9 3 5 17 8 30 5 23 -4 25 -1 45 58 1 6 -10 13 -27 17 -25 6 -24 7 8 3 26
-2 38 1 42 12 10 25 7 31 -16 36 -13 2 -9 3 8 2 26 -3 34 2 45 23 7 15 15 30
17 34 2 3 -10 11 -25 16 -22 8 -24 11 -8 11 12 1 26 -4 32 -10 8 -8 23 0 53
30 72 70 187 131 274 147 17 3 32 7 34 9 2 2 50 2 106 1 79 -3 116 -9 172 -30z
m-430 -4 c-4 -3 -14 2 -24 12 -16 18 -16 18 6 6 13 -6 21 -14 18 -18z m-30
-10 c-4 -3 -14 2 -24 12 -16 18 -16 18 6 6 13 -6 21 -14 18 -18z m581 -9 c-3
-10 -5 -4 -5 12 0 17 2 24 5 18 2 -7 2 -21 0 -30z m-611 1 c18 -14 18 -14 -6
-3 -31 14 -36 19 -24 19 6 0 19 -7 30 -16z m631 -16 c-3 -7 -5 -2 -5 12 0 14
2 19 5 13 2 -7 2 -19 0 -25z m30 -15 c-3 -10 -5 -4 -5 12 0 17 2 24 5 18 2 -7
2 -21 0 -30z m-682 17 c8 -13 -5 -13 -25 0 -13 8 -13 10 2 10 9 0 20 -4 23
-10z m-19 -21 c8 -14 -10 -11 -32 6 -18 13 -18 14 4 8 12 -3 25 -9 28 -14z
m721 -16 c-3 -10 -5 -4 -5 12 0 17 2 24 5 18 2 -7 2 -21 0 -30z m-756 -1 c-7
-2 -18 1 -23 6 -8 8 -4 9 13 5 13 -4 18 -8 10 -11z m784 -12 c-4 -12 -9 -19
-12 -17 -3 3 -2 15 2 27 4 12 9 19 12 17 3 -3 2 -15 -2 -27z m-795 -6 c0 -2
-9 -4 -20 -4 -11 0 -20 4 -20 9 0 5 9 7 20 4 11 -3 20 -7 20 -9z m809 -28 c-9
-8 -10 -7 -5 7 3 10 7 24 7 30 1 7 3 4 6 -7 3 -10 -1 -23 -8 -30z m23 -18 c-6
-6 -7 0 -4 19 5 21 7 23 10 9 2 -10 0 -22 -6 -28z m-859 25 c-7 -2 -19 -2 -25
0 -7 3 -2 5 12 5 14 0 19 -2 13 -5z m-20 -20 c-7 -2 -21 -2 -30 0 -10 3 -4 5
12 5 17 0 24 -2 18 -5z m899 -25 c-8 -8 -9 -4 -5 13 4 13 8 18 11 10 2 -7 -1
-18 -6 -23z m24 -14 c-4 -9 -9 -15 -11 -12 -3 3 -3 13 1 22 4 9 9 15 11 12 3
-3 3 -13 -1 -22z m19 -24 c-4 -12 -9 -19 -12 -17 -3 3 -2 15 2 27 4 12 9 19
12 17 3 -3 2 -15 -2 -27z m-982 13 c-7 -2 -19 -2 -25 0 -7 3 -2 5 12 5 14 0
19 -2 13 -5z m-10 -20 c-7 -2 -21 -2 -30 0 -10 3 -4 5 12 5 17 0 24 -2 18 -5z
m1011 -17 c-3 -9 -10 -16 -15 -16 -6 0 -5 9 1 21 13 24 24 20 14 -5z m14 -21
c-6 -14 -13 -23 -15 -21 -5 5 15 46 22 46 3 0 -1 -11 -7 -25z m-1065 -12 c-7
-2 -19 -2 -25 0 -7 3 -2 5 12 5 14 0 19 -2 13 -5z m1081 -17 c-3 -9 -10 -16
-15 -16 -6 0 -5 9 1 21 13 24 24 20 14 -5z m10 -30 c-3 -9 -10 -16 -15 -16 -5
0 -4 9 3 20 14 22 21 20 12 -4z m-1109 -6 c-3 -5 -16 -10 -28 -10 -18 0 -19 2
-7 10 20 13 43 13 35 0z m1135 -3 c0 -2 -10 -12 -21 -23 -22 -19 -22 -19 -8 4
12 19 29 30 29 19z m-1150 -27 c-8 -5 -22 -10 -30 -10 -13 0 -13 1 0 10 8 5
22 10 30 10 13 0 13 -1 0 -10z m1150 -15 c-7 -9 -15 -13 -17 -11 -7 7 7 26 19
26 6 0 6 -6 -2 -15z m10 -25 c-6 -11 -16 -20 -22 -20 -6 0 -3 9 7 20 10 11 20
20 22 20 2 0 -1 -9 -7 -20z m-1190 -20 c-20 -13 -33 -13 -25 0 3 6 14 10 23
10 15 0 15 -2 2 -10z m1200 -4 c0 -2 -8 -10 -17 -17 -16 -13 -17 -12 -4 4 13
16 21 21 21 13z m-1190 -11 c0 -2 -10 -9 -22 -15 -22 -11 -22 -10 -4 4 21 17
26 19 26 11z m1190 -30 c-7 -8 -17 -15 -22 -15 -6 0 -5 7 2 15 7 8 17 15 22
15 6 0 5 -7 -2 -15z m-1204 -10 c-11 -8 -25 -15 -30 -15 -6 0 -2 7 8 15 11 8
25 15 30 15 6 0 2 -7 -8 -15z m1224 2 c0 -2 -10 -12 -22 -23 l-23 -19 19 23
c18 21 26 27 26 19z m-1220 -22 c0 -2 -10 -9 -22 -15 -22 -11 -22 -10 -4 4 21
17 26 19 26 11z m1220 -20 c0 -2 -10 -10 -22 -16 -21 -11 -22 -11 -9 4 13 16
31 23 31 12z m-1220 -10 c0 -2 -10 -10 -22 -16 -21 -11 -22 -11 -9 4 13 16 31
23 31 12z m1220 -20 c0 -2 -10 -10 -22 -16 -21 -11 -22 -11 -9 4 13 16 31 23
31 12z m-1220 -10 c0 -2 -10 -10 -22 -16 -21 -11 -22 -11 -9 4 13 16 31 23 31
12z m1220 -20 c0 -2 -10 -10 -22 -16 -21 -11 -22 -11 -9 4 13 16 31 23 31 12z
m-1220 -10 c0 -2 -10 -10 -22 -16 -21 -11 -22 -11 -9 4 13 16 31 23 31 12z
m1206 -30 c-11 -8 -22 -12 -25 -9 -6 6 19 24 34 24 6 -1 1 -7 -9 -15z m-1206
0 c0 -2 -10 -10 -22 -16 -21 -11 -22 -11 -9 4 13 16 31 23 31 12z m1210 -25
c-8 -5 -19 -10 -25 -10 -5 0 -3 5 5 10 8 5 20 10 25 10 6 0 3 -5 -5 -10z
m-1220 -15 c-7 -8 -17 -15 -22 -15 -6 0 -5 7 2 15 7 8 17 15 22 15 6 0 5 -7
-2 -15z m10 -19 c0 -2 -8 -10 -17 -17 -16 -13 -17 -12 -4 4 13 16 21 21 21 13z
m0 -41 c-7 -9 -15 -13 -18 -10 -3 2 1 11 8 20 7 9 15 13 18 10 3 -2 -1 -11 -8
-20z m1200 15 c-20 -13 -33 -13 -25 0 3 6 14 10 23 10 15 0 15 -2 2 -10z
m-1190 -40 c-6 -11 -16 -20 -22 -20 -6 0 -3 9 7 20 10 11 20 20 22 20 2 0 -1
-9 -7 -20z m1180 10 c-20 -13 -33 -13 -25 0 3 6 14 10 23 10 15 0 15 -2 2 -10z
m-1172 -40 c-7 -11 -17 -20 -22 -20 -5 0 -1 9 9 20 10 11 20 20 22 20 2 0 -2
-9 -9 -20z m1167 10 c-28 -12 -37 -12 -30 0 3 6 16 10 28 9 21 0 21 -1 2 -9z
m-1157 -40 c-7 -10 -14 -18 -15 -16 -6 6 9 36 18 36 5 0 4 -9 -3 -20z m1152
16 c0 -2 -9 -6 -20 -9 -11 -3 -20 -1 -20 4 0 5 9 9 20 9 11 0 20 -2 20 -4z
m-1144 -48 c-18 -26 -22 -17 -5 14 6 11 13 17 16 15 3 -3 -2 -16 -11 -29z
m1127 15 c-7 -2 -19 -2 -25 0 -7 3 -2 5 12 5 14 0 19 -2 13 -5z m-1109 -37
c-3 -9 -10 -16 -15 -16 -6 0 -5 9 1 21 13 24 24 20 14 -5z m1101 14 c-3 -5
-16 -10 -28 -9 -21 0 -21 1 -2 9 28 12 37 12 30 0z m-1094 -47 c-12 -20 -14
-14 -5 12 4 9 9 14 11 11 3 -2 0 -13 -6 -23z m29 -1 c0 -5 -7 -17 -16 -28 -8
-10 -14 -14 -11 -9 2 6 7 18 10 28 7 17 17 23 17 9z m1033 -9 c-7 -2 -21 -2
-30 0 -10 3 -4 5 12 5 17 0 24 -2 18 -5z m-1027 -39 c-4 -9 -9 -15 -11 -12 -3
3 -3 13 1 22 4 9 9 15 11 12 3 -3 3 -13 -1 -22z m1007 19 c-7 -2 -19 -2 -25 0
-7 3 -2 5 12 5 14 0 19 -2 13 -5z m-988 -43 c-4 -12 -9 -19 -12 -17 -3 3 -2
15 2 27 4 12 9 19 12 17 3 -3 2 -15 -2 -27z m978 13 c-7 -2 -21 -2 -30 0 -10
3 -4 5 12 5 17 0 24 -2 18 -5z m-958 -33 c-4 -12 -9 -19 -12 -17 -3 3 -2 15 2
27 4 12 9 19 12 17 3 -3 2 -15 -2 -27z m938 13 c-7 -2 -21 -2 -30 0 -10 3 -4
5 12 5 17 0 24 -2 18 -5z m-924 -47 c-9 -8 -10 -7 -5 7 3 10 7 24 7 30 1 7 3
4 6 -7 3 -10 -1 -23 -8 -30z m906 24 c7 -12 -2 -12 -30 0 -19 8 -19 9 2 9 12
1 25 -3 28 -9z m-878 -37 c-3 -10 -5 -4 -5 12 0 17 2 24 5 18 2 -7 2 -21 0
-30z m853 17 c13 -9 13 -10 0 -10 -8 0 -22 5 -30 10 -13 9 -13 10 0 10 8 0 22
-5 30 -10z m-833 -42 c-3 -7 -5 -2 -5 12 0 14 2 19 5 13 2 -7 2 -19 0 -25z
m813 22 c13 -9 13 -10 0 -10 -8 0 -22 5 -30 10 -13 9 -13 10 0 10 8 0 22 -5
30 -10z m-780 -17 c0 -5 -5 -15 -10 -23 -8 -12 -10 -11 -10 8 0 12 5 22 10 22
6 0 10 -3 10 -7z m755 -3 c8 -13 -5 -13 -25 0 -13 8 -13 10 2 10 9 0 20 -4 23
-10z m-738 -37 c-3 -10 -5 -4 -5 12 0 17 2 24 5 18 2 -7 2 -21 0 -30z m718 17
c8 -13 -5 -13 -25 0 -13 8 -13 10 2 10 9 0 20 -4 23 -10z m-698 -32 c-3 -7 -5
-2 -5 12 0 14 2 19 5 13 2 -7 2 -19 0 -25z m663 22 c8 -5 12 -11 9 -14 -3 -3
-14 1 -25 9 -21 16 -8 20 16 5z m-20 -20 c13 -8 13 -10 -2 -10 -9 0 -20 5 -23
10 -8 13 5 13 25 0z m-580 -28 c0 -15 -2 -15 -10 -2 -13 20 -13 33 0 25 6 -3
10 -14 10 -23z m551 11 c13 -15 12 -15 -8 -4 -24 12 -29 21 -14 21 5 0 15 -7
22 -17z m-528 -13 c3 -11 1 -20 -4 -20 -5 0 -9 9 -9 20 0 11 2 20 4 20 2 0 6
-9 9 -20z m503 -8 c-4 -3 -14 2 -24 12 -16 18 -16 18 6 6 13 -6 21 -14 18 -18z
m-479 -14 c-3 -7 -5 -2 -5 12 0 14 2 19 5 13 2 -7 2 -19 0 -25z m449 4 c-4 -3
-14 2 -24 12 -16 18 -16 18 6 6 13 -6 21 -14 18 -18z m-418 -13 c-3 -8 -7 -3
-11 10 -4 17 -3 21 5 13 5 -5 8 -16 6 -23z m388 10 c19 -22 19 -22 -3 -8 -13
8 -23 17 -23 21 0 12 6 9 26 -13z m-356 -17 c0 -15 -2 -15 -10 -2 -13 20 -13
33 0 25 6 -3 10 -14 10 -23z m325 8 c10 -11 16 -20 13 -20 -3 0 -13 9 -23 20
-10 11 -16 20 -13 20 3 0 13 -9 23 -20z m-265 -25 c0 -5 -5 -3 -10 5 -5 8 -10
20 -10 25 0 6 5 3 10 -5 5 -8 10 -19 10 -25z m205 15 c10 -11 16 -20 13 -20
-3 0 -13 9 -23 20 -10 11 -16 20 -13 20 3 0 13 -9 23 -20z m35 5 c7 -8 8 -15
2 -15 -5 0 -15 7 -22 15 -7 8 -8 15 -2 15 5 0 15 -7 22 -15z m-210 -23 c0 -15
-2 -15 -10 -2 -13 20 -13 33 0 25 6 -3 10 -14 10 -23z m30 -7 c0 -5 -5 -3 -10
5 -5 8 -10 20 -10 25 0 6 5 3 10 -5 5 -8 10 -19 10 -25z m34 -5 c-6 -5 -24 21
-24 34 0 6 6 1 14 -10 8 -10 12 -21 10 -24z m24 20 c7 -11 9 -20 4 -20 -4 0
-13 9 -20 20 -7 11 -9 20 -4 20 4 0 13 -9 20 -20z m30 0 c7 -11 11 -20 9 -20
-2 0 -12 9 -22 20 -10 11 -14 20 -9 20 5 0 15 -9 22 -20z"/>
<path d="M1090 1570 c0 -5 5 -10 10 -10 6 0 10 -13 10 -30 0 -16 5 -30 10 -30
6 0 10 14 10 30 0 17 5 30 10 30 6 0 10 5 10 10 0 6 -13 10 -30 10 -16 0 -30
-4 -30 -10z"/>
<path d="M1193 1554 c-4 -10 1 -22 12 -30 10 -8 15 -17 11 -21 -4 -4 -11 -1
-16 7 -5 8 -12 11 -15 8 -11 -11 5 -28 26 -28 28 0 35 28 13 46 -18 14 -18 15
6 8 22 -6 23 -5 11 10 -17 21 -40 21 -48 0z"/>
<path d="M973 1546 c8 -21 -15 -26 -31 -7 -12 14 -13 11 -8 -19 8 -41 26 -65
26 -32 0 25 18 30 26 7 4 -8 10 -13 14 -10 10 6 -10 75 -23 75 -5 0 -7 -6 -4
-14z"/>
<path d="M1287 1512 c-32 -33 -34 -42 -7 -35 12 3 22 -1 26 -11 11 -29 24 -17
24 23 0 51 -11 57 -43 23z"/>
<path d="M844 1494 c3 -9 6 -27 6 -40 0 -13 5 -24 10 -24 6 0 10 7 10 15 0 15
10 19 40 16 8 -1 2 10 -15 24 -34 28 -60 33 -51 9z m31 -14 c3 -5 1 -10 -4
-10 -6 0 -11 5 -11 10 0 6 2 10 4 10 3 0 8 -4 11 -10z"/>
<path d="M1373 1473 c-29 -39 -29 -52 -2 -27 20 18 20 18 14 -8 -4 -14 -2 -28
3 -32 11 -6 56 53 47 62 -4 4 -12 -2 -18 -13 -11 -18 -12 -17 -17 15 l-5 35
-22 -32z"/>
<path d="M760 1445 c-17 -20 -2 -38 26 -31 13 4 24 2 24 -3 0 -5 -8 -11 -17
-13 -12 -2 -14 -6 -7 -10 18 -12 48 16 41 37 -6 13 -14 16 -35 11 -26 -6 -26
-6 -8 9 16 12 17 15 4 15 -8 0 -21 -7 -28 -15z"/>
<path d="M978 1445 c-77 -25 -167 -93 -215 -163 -59 -86 -76 -152 -71 -266 5
-107 35 -182 102 -254 94 -102 201 -146 338 -140 75 4 96 9 161 41 141 70 227
199 235 352 7 138 -33 240 -133 334 -83 79 -148 105 -270 108 -68 2 -115 -2
-147 -12z m311 -44 c81 -41 146 -109 185 -191 29 -60 31 -73 31 -170 0 -93 -3
-111 -27 -163 -38 -80 -117 -160 -197 -200 -61 -30 -72 -32 -171 -32 -98 0
-110 2 -170 32 -83 41 -152 110 -193 193 -30 60 -32 72 -32 170 0 94 3 111 27
163 51 109 110 165 225 213 51 22 70 24 158 21 90 -3 107 -7 164 -36z"/>
<path d="M1009 1406 c-102 -27 -200 -112 -245 -211 -72 -157 -19 -355 124
-460 67 -49 132 -69 227 -69 69 -1 89 4 145 30 117 55 185 136 216 254 28 112
0 245 -71 328 -34 39 -126 118 -113 97 4 -6 -9 -39 -27 -74 -23 -42 -29 -61
-19 -57 9 3 33 3 55 0 l40 -7 -3 -118 c-2 -83 0 -119 8 -119 20 0 97 -91 86
-102 -12 -12 -129 -5 -205 13 -53 12 -61 12 -89 -4 -27 -15 -32 -15 -51 -2
-27 19 -59 19 -121 0 -54 -16 -172 -20 -180 -6 -8 12 72 101 90 101 9 0 12 5
9 11 -4 5 -4 57 0 113 7 96 9 105 31 115 15 6 24 7 24 1 0 -6 -7 -10 -15 -10
-8 0 -15 -4 -15 -10 0 -5 9 -10 19 -10 14 0 21 8 23 26 3 23 15 31 107 65 57
22 105 38 107 36 3 -2 -43 -21 -100 -43 -57 -21 -102 -42 -100 -46 9 -14 30
-9 140 34 85 33 104 43 88 50 -14 6 -9 7 18 5 30 -2 39 2 52 24 l16 27 -65 16
c-75 19 -142 20 -206 2z m1 -526 c0 -15 -26 -23 -41 -14 -9 5 -7 10 7 15 27
11 34 10 34 -1z m50 -7 c0 -14 2 -15 9 -4 7 10 12 8 24 -10 l16 -23 25 27 c18
19 35 27 58 27 66 0 60 -16 -18 -43 -71 -25 -79 -26 -100 -12 -13 8 -30 15
-39 15 -8 0 -15 9 -15 20 0 13 7 20 20 20 12 0 20 -7 20 -17z"/>
<path d="M1174 1225 c-4 -8 -11 -12 -17 -8 -5 3 -7 1 -3 -5 3 -6 -8 -15 -29
-22 -38 -13 -47 -30 -15 -30 11 0 22 -1 25 -2 3 -2 17 16 31 40 14 23 22 42
19 42 -3 0 -8 -7 -11 -15z"/>
<path d="M1239 1233 c-9 -2 -21 -14 -26 -26 l-11 -23 43 20 c54 25 50 44 -6
29z"/>
<path d="M1010 1128 c-3 -59 -1 -104 3 -99 4 4 6 52 5 107 l-3 99 -5 -107z"/>
<path d="M944 1100 c0 -58 1 -81 3 -52 2 28 2 76 0 105 -2 28 -3 5 -3 -53z"/>
<path d="M1059 1173 c-1 -10 -1 -22 0 -27 1 -5 -5 -6 -13 -3 -10 4 -13 1 -9
-8 3 -8 9 -13 13 -10 5 3 11 -16 13 -42 2 -34 4 -25 5 30 1 42 0 77 -3 77 -3
0 -6 -8 -6 -17z"/>
<path d="M1122 1025 c2 -11 -1 -20 -7 -20 -5 0 -15 -4 -22 -8 -6 -4 -14 -3
-18 3 -11 18 -23 11 -18 -11 3 -12 11 -18 19 -15 9 3 14 -2 14 -13 0 -11 -5
-21 -12 -23 -7 -3 -6 -7 5 -11 14 -5 17 0 17 28 0 19 5 35 10 35 6 0 10 -16
10 -35 0 -28 3 -33 17 -28 11 4 12 8 5 11 -21 7 -14 48 11 61 l22 11 -24 -6
c-13 -3 -21 -2 -18 3 3 5 1 15 -4 23 -8 12 -9 11 -7 -5z"/>
<path d="M980 1000 c-18 -12 -2 -12 25 0 13 6 15 9 5 9 -8 0 -22 -4 -30 -9z"/>
<path d="M1215 1000 c27 -12 43 -12 25 0 -8 5 -22 9 -30 9 -10 0 -8 -3 5 -9z"/>
<path d="M836 951 l-39 -40 26 -6 c14 -4 36 -5 48 -2 16 3 12 5 -13 6 -45 1
-47 9 -10 43 19 19 41 28 72 31 l45 4 -45 1 c-41 2 -50 -2 -84 -37z"/>
<path d="M1300 983 c31 -3 53 -12 73 -31 36 -34 34 -42 -10 -43 -26 -1 -30 -3
-14 -6 12 -3 34 -2 48 2 l26 6 -39 40 c-34 35 -43 39 -84 37 l-45 -1 45 -4z"/>
<path d="M980 935 c-46 -18 -28 -18 35 0 29 8 39 14 25 14 -14 0 -41 -7 -60
-14z"/>
<path d="M1205 935 c63 -18 81 -18 35 0 -19 7 -46 14 -60 14 -14 0 -4 -6 25
-14z"/>
<path d="M908 913 c6 -2 18 -2 25 0 6 3 1 5 -13 5 -14 0 -19 -2 -12 -5z"/>
<path d="M1288 913 c6 -2 18 -2 25 0 6 3 1 5 -13 5 -14 0 -19 -2 -12 -5z"/>
<path d="M1453 1402 c-36 -17 -43 -31 -16 -28 10 0 19 -9 23 -24 7 -24 8 -24
24 14 21 47 11 59 -31 38z"/>
<path d="M690 1370 c0 -15 31 -60 41 -60 5 0 6 7 3 15 -4 10 2 18 17 24 l24 9
-28 11 c-35 14 -57 14 -57 1z"/>
<path d="M1518 1336 c-16 -12 -28 -27 -28 -34 0 -8 9 -10 28 -6 26 7 27 6 9
-13 -9 -11 -15 -22 -11 -25 8 -8 74 14 74 24 0 5 -10 6 -22 3 -19 -6 -21 -5
-10 6 18 19 15 29 -9 29 -18 0 -19 2 -9 15 20 25 7 25 -22 1z"/>
<path d="M643 1298 c-24 -31 -23 -38 6 -53 38 -19 47 -19 31 1 -11 13 -10 16
8 21 12 3 22 10 22 15 0 6 -6 8 -14 5 -8 -3 -17 1 -20 9 -7 17 -20 18 -33 2z
m13 -35 c-10 -10 -19 5 -10 18 6 11 8 11 12 0 2 -7 1 -15 -2 -18z"/>
<path d="M1568 1227 c-16 -6 -28 -14 -28 -19 0 -10 1 -10 39 3 17 6 31 15 31
20 0 11 -7 10 -42 -4z"/>
<path d="M602 1198 c-22 -22 -14 -46 18 -53 35 -8 50 0 50 24 0 21 -19 41 -40
41 -9 0 -21 -5 -28 -12z m48 -24 c0 -9 -7 -14 -17 -12 -25 5 -28 28 -4 28 12
0 21 -6 21 -16z"/>
<path d="M1610 1180 c0 -6 -11 -16 -25 -22 -25 -11 -36 -32 -12 -22 8 3 26 0
40 -5 15 -6 27 -7 27 -2 0 5 -8 12 -17 15 -12 5 -14 9 -5 18 15 15 15 28 2 28
-5 0 -10 -5 -10 -10z"/>
<path d="M603 1095 c-18 -8 -33 -17 -33 -20 0 -6 63 -35 76 -35 4 0 2 6 -4 13
-7 8 -7 18 -2 27 21 33 12 36 -37 15z"/>
<path d="M1575 1060 l0 -38 38 20 c42 21 40 29 -8 45 -30 10 -30 10 -30 -27z
m45 6 c0 -3 -4 -8 -10 -11 -5 -3 -10 -1 -10 4 0 6 5 11 10 11 6 0 10 -2 10 -4z"/>
<path d="M587 1003 c-12 -11 -8 -23 8 -23 8 0 15 -4 15 -10 0 -5 -7 -10 -15
-10 -8 0 -15 -7 -15 -15 0 -17 46 -20 70 -5 12 8 10 10 -10 10 l-25 1 25 10
c19 8 21 12 11 18 -7 5 -10 14 -7 20 8 12 -46 16 -57 4z"/>
<path d="M1570 991 c0 -6 7 -11 15 -11 22 0 18 -21 -5 -27 -31 -8 -12 -23 28
-22 20 1 29 3 20 6 -22 5 -24 33 -3 33 8 0 15 5 15 10 0 6 -9 10 -19 10 -11 0
-26 3 -35 6 -9 3 -16 1 -16 -5z"/>
<path d="M615 883 c-8 -8 -15 -18 -15 -23 0 -18 30 -38 50 -33 12 3 18 8 15
11 -2 3 0 11 6 19 9 10 8 13 0 13 -7 0 -10 4 -7 9 10 16 -34 20 -49 4z"/>
<path d="M1567 893 c-9 -2 -15 -9 -12 -14 4 -5 1 -9 -6 -9 -8 0 -9 -3 0 -13 6
-8 8 -16 6 -19 -3 -3 3 -8 15 -11 20 -5 50 15 50 33 0 8 -29 42 -33 39 -1 -1
-10 -3 -20 -6z"/>
<path d="M684 768 c-16 -12 -31 -23 -33 -25 -2 -2 -1 -6 2 -10 4 -3 17 2 29
13 l23 19 -19 -23 c-28 -32 -12 -39 29 -11 39 27 48 46 13 28 -19 -9 -21 -9
-10 2 31 33 7 38 -34 7z"/>
<path d="M1499 776 c10 -12 8 -13 -8 -9 -31 8 -25 -9 12 -34 41 -28 61 -30 27
-3 l-25 20 28 -10 c51 -18 52 -5 2 28 -40 25 -53 28 -36 8z"/>
<path d="M735 710 c-17 -17 -25 -35 -22 -44 9 -24 30 -19 62 14 33 35 21 40
-21 8 l-29 -22 28 31 c37 39 19 52 -18 13z"/>
<path d="M1446 731 c-3 -4 10 -22 28 -40 19 -18 36 -28 40 -23 3 5 -10 23 -29
40 -19 18 -36 28 -39 23z"/>
<path d="M1416 688 c12 -22 47 -58 56 -58 5 0 -3 16 -18 35 -25 33 -54 50 -38
23z"/>
<path d="M787 650 c-27 -38 -26 -54 2 -27 11 10 12 8 6 -10 -9 -33 1 -28 29
14 19 27 23 40 14 50 -15 19 -20 17 -51 -27z m43 10 c0 -5 -5 -10 -11 -10 -5
0 -7 5 -4 10 3 6 8 10 11 10 2 0 4 -4 4 -10z"/>
<path d="M1361 661 c-12 -8 -11 -15 10 -45 25 -38 46 -46 55 -21 6 14 -30 75
-44 75 -4 0 -13 -4 -21 -9z m35 -28 c16 -21 18 -37 4 -28 -13 8 -33 45 -24 45
4 0 13 -8 20 -17z"/>
<path d="M855 618 c-33 -67 1 -94 35 -28 11 22 16 40 10 40 -5 0 -10 -3 -10
-7 0 -5 -10 -19 -21 -33 l-20 -25 16 33 c9 18 14 39 12 45 -2 7 -12 -4 -22
-25z"/>
<path d="M1300 623 c0 -24 22 -83 31 -83 6 0 7 5 3 12 -5 8 -2 9 9 5 23 -9 21
9 -4 44 -19 27 -39 38 -39 22z"/>
<path d="M925 586 c-17 -39 -15 -66 5 -66 7 0 9 8 5 20 -3 10 -1 29 5 40 6 12
9 26 7 33 -3 7 -12 -5 -22 -27z"/>
<path d="M1230 600 c-11 -7 -11 -10 -2 -10 7 0 20 -16 28 -36 18 -44 31 -38
15 7 -6 17 -8 35 -5 40 7 12 -17 11 -36 -1z"/>
<path d="M1006 559 c-9 -46 -7 -69 4 -44 8 18 9 18 9 2 1 -10 6 -15 11 -12 6
3 10 1 10 -6 0 -28 19 8 26 49 7 46 -6 57 -24 20 l-11 -23 0 23 c-1 33 -18 27
-25 -9z"/>
<path d="M1118 550 c-1 -44 -1 -44 -5 -7 -6 52 -25 47 -21 -5 2 -35 7 -43 23
-43 16 0 21 8 23 39 2 21 -1 43 -7 49 -8 8 -11 -2 -13 -33z"/>
<path d="M1166 553 c8 -46 17 -58 39 -49 13 5 15 13 10 38 -10 44 -13 48 -36
48 -18 0 -19 -5 -13 -37z m31 -35 c-3 -8 -6 -5 -6 6 -1 11 2 17 5 13 3 -3 4
-12 1 -19z"/>
</g>
</svg>
